<?xml version="1.0" encoding="utf-8"?>
<!-- Generator: Adobe Illustrator 16.0.0, SVG Export Plug-In . SVG Version: 6.00 Build 0)  -->
<!DOCTYPE svg PUBLIC "-//W3C//DTD SVG 1.1//EN" "http://www.w3.org/Graphics/SVG/1.1/DTD/svg11.dtd">
<svg version="1.1" id="Layer_1" xmlns="http://www.w3.org/2000/svg" xmlns:xlink="http://www.w3.org/1999/xlink" x="0px" y="0px"
	 width="45px" height="71px" viewBox="0 0 45 71" enable-background="new 0 0 45 71" xml:space="preserve">
<g>
	<path fill-rule="evenodd" clip-rule="evenodd" fill="#E95F5D" d="M22.425,69.428C14.317,55.648,6.147,42.72,1.804,27.913
		c-2.463-8.396,1.018-17.218,8.253-22.324c7.249-5.116,17.438-5.092,24.803,0.059c7.122,4.98,10.642,14.104,8.172,22.364
		C38.62,42.769,30.446,55.663,22.425,69.428z M40.055,24.128c0.02-11.022-6.761-18.081-17.408-18.122
		c-9.504-0.037-17.56,7.809-17.65,17.19c-0.101,10.495,7.78,19.038,17.967,18.607C33.62,41.354,41.307,32.312,40.055,24.128z"/>
	<path fill-rule="evenodd" clip-rule="evenodd" fill="#BD4A4A" d="M40.055,24.128c1.252,8.184-6.435,17.226-17.091,17.676
		C12.776,42.234,4.896,33.691,4.997,23.197c0.09-9.381,8.146-17.227,17.65-17.19C33.294,6.047,40.074,13.106,40.055,24.128z"/>
</g>
</svg>
