<svg xmlns="http://www.w3.org/2000/svg" width="42.8" height="67.66" viewBox="0 0 42.8 67.66"><defs><style>.a{fill:#e95f5d;}.a,.b{fill-rule:evenodd;}.b{fill:#bd4a4a;}</style></defs><path class="a" d="M22.425,67.66C14.317,53.88,6.147,40.952,1.8,26.145c-2.463-8.4,1.018-17.218,8.253-22.324a21.9,21.9,0,0,1,24.8.059c7.122,4.98,10.642,14.1,8.172,22.364C38.62,41,30.446,53.9,22.425,67.66Zm17.63-45.3c.02-11.022-6.761-18.081-17.408-18.122A17.693,17.693,0,0,0,5,21.428c-.1,10.495,7.78,19.038,17.967,18.607C33.62,39.585,41.307,30.544,40.055,22.36Z" transform="translate(-1.018 0)"/><path class="b" d="M40.055,22.36c1.252,8.184-6.435,17.226-17.091,17.676C12.776,40.466,4.9,31.923,5,21.429a17.693,17.693,0,0,1,17.65-17.19C33.294,4.279,40.074,11.338,40.055,22.36Z" transform="translate(-1.018 0)"/></svg>